<?xml version="1.0"?>
<svg version="1.1" xmlns="http://www.w3.org/2000/svg" width="400px" height="100px" style="border:2px solid red"><path fill="#050c9c" d="M47.68359375,73.984375l-6.875-22.40234375l-0.17578125,0q0.37109375,6.8359375,0.37109375,9.12109375l0,13.28125l-5.41015625,0l0-28.5546875l8.2421875,0l6.7578125,21.8359375l0.1171875,0l7.16796875-21.8359375l8.2421875,0l0,28.5546875l-5.64453125,0l0-13.515625q0-0.95703125,0.029296875-2.20703125t0.263671875-6.640625l-0.17578125,0l-7.36328125,22.36328125l-5.546875,0z M84.6322265625,55.9765625q-1.89453125,0-2.96875,1.201171875t-1.23046875,3.408203125l8.359375,0q-0.0390625-2.20703125-1.15234375-3.408203125t-3.0078125-1.201171875z M85.4720703125,74.375q-5.2734375,0-8.2421875-2.91015625t-2.96875-8.2421875q0-5.48828125,2.744140625-8.486328125t7.587890625-2.998046875q4.62890625,0,7.20703125,2.63671875t2.578125,7.28515625l0,2.890625l-14.08203125,0q0.09765625,2.5390625,1.50390625,3.96484375t3.9453125,1.42578125q1.97265625,0,3.73046875-0.41015625t3.671875-1.30859375l0,4.609375q-1.5625,0.78125-3.33984375,1.162109375t-4.3359375,0.380859375z M108.885546875,74.375q-3.84765625,0-6.044921875-2.98828125t-2.197265625-8.28125q0-5.37109375,2.236328125-8.369140625t6.162109375-2.998046875q4.12109375,0,6.2890625,3.203125l0.1953125,0q-0.44921875-2.44140625-0.44921875-4.35546875l0-6.9921875l5.9765625,0l0,30.390625l-4.5703125,0l-1.15234375-2.83203125l-0.25390625,0q-2.03125,3.22265625-6.19140625,3.22265625z M110.975390625,69.62890625q2.28515625,0,3.349609375-1.328125t1.162109375-4.51171875l0-0.64453125q0-3.515625-1.083984375-5.0390625t-3.525390625-1.5234375q-1.9921875,0-3.095703125,1.689453125t-1.103515625,4.912109375t1.11328125,4.833984375t3.18359375,1.611328125z M129.7794921875,46.50390625q0-2.91015625,3.2421875-2.91015625t3.2421875,2.91015625q0,1.38671875-0.810546875,2.158203125t-2.431640625,0.771484375q-3.2421875,0-3.2421875-2.9296875z M135.9904296875,73.984375l-5.95703125,0l0-21.8359375l5.95703125,0l0,21.8359375z M149.4625,62.83203125l-7.03125-10.68359375l6.7578125,0l4.23828125,6.953125l4.27734375-6.953125l6.7578125,0l-7.109375,10.68359375l7.44140625,11.15234375l-6.77734375,0l-4.58984375-7.48046875l-4.609375,7.48046875l-6.7578125,0z M188.1884765625,66.0546875q0,3.8671875-2.783203125,6.09375t-7.744140625,2.2265625q-4.5703125,0-8.0859375-1.71875l0-5.625q2.890625,1.2890625,4.892578125,1.81640625t3.662109375,0.52734375q1.9921875,0,3.056640625-0.76171875t1.064453125-2.265625q0-0.83984375-0.46875-1.494140625t-1.376953125-1.259765625t-3.701171875-1.93359375q-2.6171875-1.23046875-3.92578125-2.36328125t-2.08984375-2.63671875t-0.78125-3.515625q0-3.7890625,2.568359375-5.95703125t7.099609375-2.16796875q2.2265625,0,4.248046875,0.52734375t4.228515625,1.484375l-1.953125,4.70703125q-2.28515625-0.9375-3.779296875-1.30859375t-2.939453125-0.37109375q-1.71875,0-2.63671875,0.80078125t-0.91796875,2.08984375q0,0.80078125,0.37109375,1.396484375t1.181640625,1.15234375t3.837890625,2.001953125q4.00390625,1.9140625,5.48828125,3.837890625t1.484375,4.716796875z M200.391015625,63.02734375q0,3.2421875,1.064453125,4.90234375t3.466796875,1.66015625q2.3828125,0,3.427734375-1.650390625t1.044921875-4.912109375q0-3.2421875-1.0546875-4.86328125t-3.45703125-1.62109375q-2.3828125,0-3.4375,1.611328125t-1.0546875,4.873046875z M215.488671875,63.02734375q0,5.33203125-2.8125,8.33984375t-7.83203125,3.0078125q-3.14453125,0-5.546875-1.376953125t-3.69140625-3.955078125t-1.2890625-6.015625q0-5.3515625,2.79296875-8.3203125t7.8515625-2.96875q3.14453125,0,5.546875,1.3671875t3.69140625,3.92578125t1.2890625,5.99609375z M229.1169921875,73.984375l-5.95703125,0l0-30.390625l5.95703125,0l0,30.390625z M253.58515625,73.984375l-0.80078125-2.79296875l-0.3125,0q-0.95703125,1.5234375-2.71484375,2.353515625t-4.00390625,0.830078125q-3.84765625,0-5.80078125-2.060546875t-1.953125-5.927734375l0-14.23828125l5.95703125,0l0,12.75390625q0,2.36328125,0.83984375,3.544921875t2.67578125,1.181640625q2.5,0,3.61328125-1.669921875t1.11328125-5.537109375l0-10.2734375l5.95703125,0l0,21.8359375l-4.5703125,0z M276.3541015625,69.62890625q1.5625,0,3.75-0.68359375l0,4.43359375q-2.2265625,0.99609375-5.46875,0.99609375q-3.57421875,0-5.205078125-1.806640625t-1.630859375-5.419921875l0-10.52734375l-2.8515625,0l0-2.51953125l3.28125-1.9921875l1.71875-4.609375l3.80859375,0l0,4.6484375l6.11328125,0l0,4.47265625l-6.11328125,0l0,10.52734375q0,1.26953125,0.712890625,1.875t1.884765625,0.60546875z M287.013671875,46.50390625q0-2.91015625,3.2421875-2.91015625t3.2421875,2.91015625q0,1.38671875-0.810546875,2.158203125t-2.431640625,0.771484375q-3.2421875,0-3.2421875-2.9296875z M293.224609375,73.984375l-5.95703125,0l0-21.8359375l5.95703125,0l0,21.8359375z M306.9701171875,63.02734375q0,3.2421875,1.064453125,4.90234375t3.466796875,1.66015625q2.3828125,0,3.427734375-1.650390625t1.044921875-4.912109375q0-3.2421875-1.0546875-4.86328125t-3.45703125-1.62109375q-2.3828125,0-3.4375,1.611328125t-1.0546875,4.873046875z M322.0677734375,63.02734375q0,5.33203125-2.8125,8.33984375t-7.83203125,3.0078125q-3.14453125,0-5.546875-1.376953125t-3.69140625-3.955078125t-1.2890625-6.015625q0-5.3515625,2.79296875-8.3203125t7.8515625-2.96875q3.14453125,0,5.546875,1.3671875t3.69140625,3.92578125t1.2890625,5.99609375z M349.8953125,73.984375l-5.95703125,0l0-12.75390625q0-2.36328125-0.83984375-3.544921875t-2.67578125-1.181640625q-2.5,0-3.61328125,1.669921875t-1.11328125,5.537109375l0,10.2734375l-5.95703125,0l0-21.8359375l4.55078125,0l0.80078125,2.79296875l0.33203125,0q0.99609375-1.58203125,2.744140625-2.392578125t3.974609375-0.810546875q3.80859375,0,5.78125,2.060546875t1.97265625,5.947265625l0,14.23828125z M374.0119140625,67.5q0,3.359375-2.333984375,5.1171875t-6.982421875,1.7578125q-2.3828125,0-4.0625-0.322265625t-3.14453125-0.947265625l0-4.921875q1.66015625,0.78125,3.740234375,1.30859375t3.662109375,0.52734375q3.2421875,0,3.2421875-1.875q0-0.703125-0.4296875-1.142578125t-1.484375-0.99609375t-2.8125-1.298828125q-2.51953125-1.0546875-3.701171875-1.953125t-1.71875-2.060546875t-0.537109375-2.861328125q0-2.91015625,2.255859375-4.501953125t6.396484375-1.591796875q3.9453125,0,7.67578125,1.71875l-1.796875,4.296875q-1.640625-0.703125-3.06640625-1.15234375t-2.91015625-0.44921875q-2.63671875,0-2.63671875,1.42578125q0,0.80078125,0.849609375,1.38671875t3.720703125,1.73828125q2.55859375,1.03515625,3.75,1.93359375t1.7578125,2.0703125t0.56640625,2.79296875z"/><path fill="#" d=""/></svg>
