<?xml version="1.0"?>
<svg version="1.1" xmlns="http://www.w3.org/2000/svg" width="100px" height="100px" style=""><path fill="#050c9c" d="M33.68359375,73.984375l-6.875-22.40234375l-0.17578125,0q0.37109375,6.8359375,0.37109375,9.12109375l0,13.28125l-5.41015625,0l0-28.5546875l8.2421875,0l6.7578125,21.8359375l0.1171875,0l7.16796875-21.8359375l8.2421875,0l0,28.5546875l-5.64453125,0l0-13.515625q0-0.95703125,0.029296875-2.20703125t0.263671875-6.640625l-0.17578125,0l-7.36328125,22.36328125l-5.546875,0z M78.9134765625,66.0546875q0,3.8671875-2.783203125,6.09375t-7.744140625,2.2265625q-4.5703125,0-8.0859375-1.71875l0-5.625q2.890625,1.2890625,4.892578125,1.81640625t3.662109375,0.52734375q1.9921875,0,3.056640625-0.76171875t1.064453125-2.265625q0-0.83984375-0.46875-1.494140625t-1.376953125-1.259765625t-3.701171875-1.93359375q-2.6171875-1.23046875-3.92578125-2.36328125t-2.08984375-2.63671875t-0.78125-3.515625q0-3.7890625,2.568359375-5.95703125t7.099609375-2.16796875q2.2265625,0,4.248046875,0.52734375t4.228515625,1.484375l-1.953125,4.70703125q-2.28515625-0.9375-3.779296875-1.30859375t-2.939453125-0.37109375q-1.71875,0-2.63671875,0.80078125t-0.91796875,2.08984375q0,0.80078125,0.37109375,1.396484375t1.181640625,1.15234375t3.837890625,2.001953125q4.00390625,1.9140625,5.48828125,3.837890625t1.484375,4.716796875z"/><path fill="#" d=""/></svg>
